<?xml version="1.0" encoding="utf-8"?>
<!-- Generator: Adobe Illustrator 21.0.0, SVG Export Plug-In . SVG Version: 6.00 Build 0)  -->
<!DOCTYPE svg PUBLIC "-//W3C//DTD SVG 1.1//EN" "http://www.w3.org/Graphics/SVG/1.1/DTD/svg11.dtd">
<svg version="1.1" id="Laag_1" xmlns="http://www.w3.org/2000/svg" xmlns:xlink="http://www.w3.org/1999/xlink" x="0px" y="0px"
	 width="1275px" height="850px" viewBox="0 0 1275 850" style="enable-background:new 0 0 1275 850;" xml:space="preserve">
<style type="text/css">
	.st0{fill:none;}
	.st1{fill:#FFB511;}
	.st2{fill:#2175D9;}
	.st3{fill:#0F1941;}
	.st4{fill:#F7F5F0;}
</style>
<rect class="st0" width="1275" height="850"/>
<path class="st1" d="M990.6,73.9H524.6c-24.3,0-44.1,19.9-44.1,44.1v319.6c0,24.3,19.9,44.1,44.1,44.1h236.3l138.1,70.6
	c11.3,5.8,24.9-2.4,24.9-15.1v-55.6h71.7c21.6,0,39.2-17.5,39.2-39.2V118.1C1034.8,93.8,1014.9,73.9,990.6,73.9z"/>
<path class="st2" d="M537,389.1H386.9c-91.2,0-165.2,74-165.2,165.2c0,79,55.4,145,129.4,161.3v43.5c0,12.7,13.5,20.9,24.9,15.1
	l106.8-54.6H537c91.2,0,165.2-74,165.2-165.2S628.3,389.1,537,389.1z"/>
<path class="st3" d="M868.5,169.4H646.7c-15.3,0-27.7,12.4-27.7,27.7v135.5c0,15.3,12.4,27.7,27.7,27.7h221.7
	c15.3,0,27.7-12.4,27.7-27.7V197.1C896.2,181.8,883.8,169.4,868.5,169.4z M860,187.9l-102.4,79.7l-102.4-79.7H860z M868.5,341.8
	H646.7c-5.1,0-9.2-4.1-9.2-9.2V197.5l114.4,89c1.7,1.3,3.7,1.9,5.7,1.9s4-0.6,5.7-1.9l114.4-89v135.1
	C877.7,337.7,873.6,341.8,868.5,341.8z"/>
<g>
	<g>
		<path class="st4" d="M517.4,668.3H406.5c-15.3,0-27.7-12.4-27.7-27.7V462c0-15.3,12.4-27.7,27.7-27.7h110.9
			c15.3,0,27.7,12.4,27.7,27.7v178.6C545.1,655.9,532.7,668.3,517.4,668.3z M406.5,452.7c-5.1,0-9.2,4.1-9.2,9.2v178.6
			c0,5.1,4.1,9.2,9.2,9.2h110.9c5.1,0,9.2-4.1,9.2-9.2V462c0-5.1-4.1-9.2-9.2-9.2H406.5z"/>
	</g>
	<circle class="st4" cx="462" cy="609.8" r="18.5"/>
</g>
<g>
</g>
<g>
</g>
<g>
</g>
<g>
</g>
<g>
</g>
<g>
</g>
<g>
</g>
<g>
</g>
<g>
</g>
<g>
</g>
<g>
</g>
<g>
</g>
<g>
</g>
<g>
</g>
<g>
</g>
</svg>
